<svg data-v-423bf9ae="" xmlns="http://www.w3.org/2000/svg" viewBox="0 0 98.99686423535205 60" class="font"><!----><!----><defs data-v-423bf9ae=""><linearGradient data-v-423bf9ae="" gradientTransform="rotate(25)" id="0875a37f-017a-487d-a248-499d0cb8bcef" x1="0%" y1="0%" x2="100%" y2="0%"><stop data-v-423bf9ae="" offset="0%" style="stop-color: rgb(9, 120, 166); stop-opacity: 1;"></stop><stop data-v-423bf9ae="" offset="100%" style="stop-color: rgb(251, 148, 71); stop-opacity: 1;"></stop></linearGradient></defs><g data-v-423bf9ae="" id="e95bff6d-2799-400a-944b-af61f4dbee1f" fill="url(#0875a37f-017a-487d-a248-499d0cb8bcef)" transform="matrix(6.2695920516383215,0,0,6.2695920516383215,-5.203763418313052,-27.398117024998754)"><path d="M4.23 13.94C6.37 13.94 7.62 12.70 7.62 11.20C7.62 9.86 6.79 9.18 5.63 8.71L4.42 8.19C3.60 7.85 2.86 7.60 2.86 6.87C2.86 6.17 3.44 5.77 4.40 5.77C5.25 5.77 5.88 6.06 6.50 6.57L7.34 5.54C6.58 4.80 5.53 4.37 4.40 4.37C2.53 4.37 1.22 5.49 1.22 6.96C1.22 8.30 2.21 9.03 3.19 9.41L4.44 9.95C5.35 10.32 5.96 10.56 5.96 11.33C5.96 12.07 5.39 12.54 4.26 12.54C3.36 12.54 2.45 12.11 1.76 11.48L0.83 12.59C1.72 13.45 2.94 13.94 4.23 13.94ZM9.56 13.78L11.20 13.78L11.20 11.06L12.53 9.41L14.83 13.78L16.62 13.78L13.50 8.13L16.31 4.54L14.52 4.54L11.24 8.75L11.20 8.75L11.20 4.54L9.56 4.54Z"></path></g><!----><!----></svg>