<svg data-v-423bf9ae="" width = "100px" height = "100px"xmlns="http://www.w3.org/2000/svg" viewBox="0 0 452.96700129689225 60" class="font"><!----><!----><defs data-v-423bf9ae=""><linearGradient data-v-423bf9ae="" gradientTransform="rotate(25)" id="12be63dd-1c23-454e-827d-d2d61a42e196" x1="0%" y1="0%" x2="100%" y2="0%"><stop data-v-423bf9ae="" offset="0%" style="stop-color: rgb(9, 120, 166); stop-opacity: 1;"></stop><stop data-v-423bf9ae="" offset="100%" style="stop-color: rgb(251, 148, 71); stop-opacity: 1;"></stop></linearGradient></defs><g data-v-423bf9ae="" id="a64d8d29-e36e-4150-8859-e27252eec32f" fill="url(#12be63dd-1c23-454e-827d-d2d61a42e196)" transform="matrix(5.494505456117445,0,0,5.494505456117445,-4.560440766635395,-16.70329637699829)"><path d="M4.23 13.94C6.37 13.94 7.62 12.70 7.62 11.20C7.62 9.86 6.79 9.18 5.63 8.71L4.42 8.19C3.60 7.85 2.86 7.60 2.86 6.87C2.86 6.17 3.44 5.77 4.40 5.77C5.25 5.77 5.88 6.06 6.50 6.57L7.34 5.54C6.58 4.80 5.53 4.37 4.40 4.37C2.53 4.37 1.22 5.49 1.22 6.96C1.22 8.30 2.21 9.03 3.19 9.41L4.44 9.95C5.35 10.32 5.96 10.56 5.96 11.33C5.96 12.07 5.39 12.54 4.26 12.54C3.36 12.54 2.45 12.11 1.76 11.48L0.83 12.59C1.72 13.45 2.94 13.94 4.23 13.94ZM13.23 13.96C14.21 13.96 15.22 13.57 16.02 12.87L15.34 11.84C14.81 12.28 14.15 12.64 13.37 12.64C12.01 12.64 11.09 11.68 11.09 10.21C11.09 8.75 12.04 7.77 13.41 7.77C14.03 7.77 14.57 8.01 15.12 8.48L15.88 7.48C15.30 6.90 14.43 6.45 13.34 6.45C11.24 6.45 9.44 7.83 9.44 10.21C9.44 12.59 11.07 13.96 13.23 13.96ZM17.96 13.78L19.56 13.78L19.56 8.89C20.20 8.19 20.66 7.83 21.35 7.83C22.29 7.83 22.64 8.39 22.64 9.56L22.64 13.78L24.25 13.78L24.25 9.35C24.25 7.50 23.52 6.45 21.94 6.45C20.89 6.45 20.12 7.03 19.47 7.71L19.56 6.16L19.56 3.63L17.96 3.63ZM29.40 13.96C31.22 13.96 32.86 12.59 32.86 10.21C32.86 7.83 31.22 6.45 29.40 6.45C27.59 6.45 25.96 7.83 25.96 10.21C25.96 12.59 27.59 13.96 29.40 13.96ZM29.40 12.64C28.28 12.64 27.61 11.68 27.61 10.21C27.61 8.75 28.28 7.77 29.40 7.77C30.53 7.77 31.21 8.75 31.21 10.21C31.21 11.68 30.53 12.64 29.40 12.64ZM37.80 13.96C39.62 13.96 41.26 12.59 41.26 10.21C41.26 7.83 39.62 6.45 37.80 6.45C35.99 6.45 34.36 7.83 34.36 10.21C34.36 12.59 35.99 13.96 37.80 13.96ZM37.80 12.64C36.68 12.64 36.01 11.68 36.01 10.21C36.01 8.75 36.68 7.77 37.80 7.77C38.93 7.77 39.61 8.75 39.61 10.21C39.61 11.68 38.93 12.64 37.80 12.64ZM47.61 13.96C48.41 13.96 48.90 13.78 49.57 13.54L49.20 12.35C48.72 12.56 48.36 12.64 48.01 12.64C47.31 12.64 46.77 12.26 46.77 11.30L46.77 3.63L43.01 3.63L43.01 4.90L45.18 4.90L45.18 11.20C45.18 12.95 46.02 13.96 47.61 13.96ZM59.96 13.78L61.60 13.78L61.60 11.06L62.93 9.41L65.23 13.78L67.02 13.78L63.90 8.13L66.71 4.54L64.92 4.54L61.64 8.75L61.60 8.75L61.60 4.54L59.96 4.54ZM71.53 5.42C72.21 5.42 72.72 4.96 72.72 4.24C72.72 3.53 72.21 3.04 71.53 3.04C70.85 3.04 70.34 3.53 70.34 4.24C70.34 4.96 70.85 5.42 71.53 5.42ZM68.33 13.78L74.96 13.78L74.96 12.46L72.45 12.46L72.45 6.64L68.33 6.64L68.33 7.91L70.84 7.91L70.84 12.46L68.33 12.46ZM81.07 13.96C81.89 13.96 82.66 13.75 83.27 13.54L82.96 12.38C82.53 12.54 82.04 12.67 81.45 12.67C80.29 12.67 79.87 12.11 79.87 10.92L79.87 7.91L83.01 7.91L83.01 6.64L79.87 6.64L79.87 3.77L78.33 4.54L78.33 6.64L76.43 6.64L76.43 7.91L78.26 7.91L78.26 10.92C78.26 12.73 78.97 13.96 81.07 13.96Z"></path></g><!----><!----></svg>